<?xml version="1.0" encoding="UTF-8"?>
<svg id="Camada_1" xmlns="http://www.w3.org/2000/svg" version="1.1" viewBox="0 0 515.46 464.95">
  <!-- Generator: Adobe Illustrator 30.5.1, SVG Export Plug-In . SVG Version: 2.1.4 Build 3)  -->
  <defs>
    <style>
      .st0 {
        fill: #fff;
      }

      .st1 {
        fill: #0668a8;
      }

      .st2 {
        fill: #0b6fb5;
      }

      .st3 {
        fill: #f4d404;
      }

      .st4 {
        fill: #f4eba0;
      }

      .st5 {
        fill: #383736;
      }

      .st6 {
        fill: #fefefe;
      }

      .st7 {
        fill: #d51116;
      }
    </style>
  </defs>
  <path class="st4" d="M251.87,88.56l5.93-5.56,17.96-4.14,10.14,3.67,9.54,3.8s-.09,5.43,0,6.11-.09,9.39,0,9.81,4.35,9.31,4.35,9.95v9.9s-12.66,9.58-12.95,10.17-3.03,3.76-3.03,3.76l-12.12,3.09s-11.85-1.48-12.09-2.03-10.89-11.14-11.08-12.47,3.34-36.03,3.34-36.03v-.02Z"/>
  <g>
    <path class="st5" d="M370.33,461.16c-6.09,2.58-7.08-4.22-11.41-4.08-7.48.25-11.42-5.72-11.5-12.6-.08-6.69,3.74-12.67,10.81-13.01,3.74-.19,7.2.46,9.75,2.96,5.23,5.1,5.1,17.29-2.4,21.59l4.75,5.15h-.01ZM366.17,449.74c2.23-4.23,1.75-9.44-1.45-12.87-2.08-2.23-5.5-2.45-8.14-1.37-3.95,1.62-5.78,6.75-4.68,11.8.75,3.45,3.07,5.85,6.2,6.36,3.25.53,6.33-.64,8.07-3.92h.01Z"/>
    <path class="st5" d="M489.54,456.33c-1.95-.12-4.74,1.99-7.11.81-2.09-1.03-4.13-2.19-5.1-5.04-1.65-4.91-.64-11.16,3.42-13.24,3.04-1.56,6.26-1.1,9.55.92l.52-9.54c1.35-.18,2.45-.18,3.62.1l-.58,26.12c-.03,1.69-3.32-.07-4.33-.13h.02ZM488.77,452.53c2.81-3.44,2.33-8.64-1.37-10.98-2.44-1.54-5.34.09-6.29,2.49-1.67,4.26,0,9.28,3.29,10.06,1.51.35,3.09,0,4.37-1.57Z"/>
    <path class="st5" d="M448.87,455.3c-3.24,2.6-7.95,2.99-10.85-.27-3.3-3.71-3.58-10.21-.58-14.3,2.77-3.77,8.37-3.51,11.78-.69l.27-9.8,3.55-.08-.14,26.73c-1.14.24-1.99.26-2.69.19-.6-.07-1.03-1-1.33-1.77h-.01ZM446.81,453.22c2.8-2.32,3.03-6.06,1.75-9.1-.77-1.81-2.08-2.81-3.7-3.08-1.77-.29-3.37.47-4.4,2.21-1.64,2.78-1.47,6.4.32,9.1,1.34,2.02,3.95,2.6,6.03.87h0Z"/>
    <path class="st5" d="M309.42,455.32c-3.6,2.97-8.84,2.79-11.45-1.2s-2.66-9.85.38-13.69c2.74-3.45,8.31-3.17,11.51-.38l.3-9.72c1.18-.25,2.33-.32,3.67-.07l-.3,26.58c-1.99.66-3.28.37-4.11-1.53h0ZM308.74,452.04c1.82-3.02,1.82-6.73-.43-9.44-1.84-2.2-5.3-2.13-6.98.34-1.9,2.8-1.78,6.99.36,9.69,1.91,2.42,5.57,1.86,7.06-.6h-.01Z"/>
    <path class="st5" d="M34.84,455.37c-2.57,1.82-5.14,2.53-7.85,1.58-6.56-2.28-7.24-12.8-2.8-17.1,2.91-2.82,7.41-2.25,10.92-.14l.43-9.29c1.27-.44,2.48-.48,4,.04l-.46,7.7-.23,18.52c-.93.41-1.98.46-2.78.38-.58-.05-1.06-.96-1.23-1.69h0ZM33.09,442.13c-1.22-1-3.37-1.77-5.1-.54-3.89,2.79-3.68,9.85.48,12.31,1.69,1,3.95-.07,4.88-1.03,2.48-2.63,2.73-8.28-.26-10.73h0Z"/>
    <path class="st5" d="M16.65,445.56l-8.99.18c-.44,2.48-.44,4.81,0,7.28l9.64.27c.35,1.13.3,2.23.13,3.77l-13.99-.29.33-25.19,13.92.46c.66.58.47,2.42.23,3.19l-9.99.09c-.4,2.14-.41,4.19-.03,6.55l8.68.1.07,3.6h0Z"/>
    <path class="st5" d="M57.15,438.76c.08-.89,2.9-.53,3.59.22l-.18,11.68-.31,6.14c-.91.32-1.97.37-2.76.19-.56-.13-1-1.01-1.33-1.63-2.18,1.85-4.53,2.46-7.02,1.85-6.79-1.66-5.03-10.51-4.67-18.83,1.34-.27,2.46-.25,3.77.03l.29,13.4c.03,1.79,2.58,2.38,4.1,2.06,1.32-.29,3.39-1.52,3.55-3.48l.99-11.63h-.02Z"/>
    <path class="st5" d="M459.87,456.49c-2.12-.9-2.91-2.87-3.02-4.82-.11-2.08,1.14-3.92,3.04-5.14,2.49-1.59,5.57-.92,8.31-1.65,1.32-.95-.51-3.52-2.2-3.65-2.44-.2-4.2.32-6.42,1.65-.7-.92-.76-2.96-.04-3.47,1.93-1.37,4.19-1.13,6.45-1.26,3.59-.22,6.69,2.18,6.64,5.98l-.18,12.36c-.02,1.48-3.43.22-4.17-.48-2.55,1.35-5.33,1.81-8.43.49h.01ZM468.48,448.11c-4.3-.44-7.92.9-7.69,3.54.07.73.53,1.38,1.32,1.91,1.79,1.18,3.9.86,5.31-.43,1.31-1.19,1.98-3.08,1.07-5.02h0Z"/>
    <path class="st5" d="M321.94,448.51c-.33,2.43,1.75,4.51,3.39,5.14,2.49.96,4.69.1,7.17-1.2.62.68.74,2.49.23,3.65-3.37,1.79-8.55,2.09-11.88-.81-4.69-4.08-4.35-12.6.84-16.12,2.36-1.6,6.45-1.35,8.81-.26,3.6,1.66,4.14,5.85,3.84,9.59l-12.39.02h0ZM330.71,445.59c-.29-3.31-2.65-4.81-4.95-4.51-2.14.29-4.13,2.09-3.88,4.57l8.84-.05h-.01Z"/>
    <path class="st5" d="M213.07,455.43c-2.37-2.19-1.98-6.68.68-8.43,2.92-1.93,6.26-1.85,9.74-1.76.13-1.59-.66-2.76-1.35-3.29-1.01-.76-2.66-1.06-3.84-.65l-4.19,1.44c-.49-.78-.46-1.93-.08-2.79.76-1.69,5.19-2.18,8.75-1.57,2.52.43,4.47,2.53,4.45,5.17l-.09,12.95c0,1.32-3.25.41-3.96-.54-3.01,1.43-7.29,2.1-10.12-.52h0ZM223.33,447.98c-2.65-.04-4.43.08-6.32,1-1.34.65-2.09,2.47-1.18,3.68,1.45,1.92,3.91,1.95,5.56.97,2-1.19,2.68-3.29,1.93-5.65h0Z"/>
    <path class="st5" d="M83.11,456.55c-1.98-.89-2.84-2.74-2.98-4.34-.18-1.98.26-3.88,1.88-5.07,2.82-2.08,6.2-1.75,9.62-2.15.97-1.41-.91-3.8-2.91-3.81-2.22-.01-3.85.54-6,1.46-.45-.64-.68-2.76.12-3.35,3.07-1.37,7.12-1.8,10.18-.23,2.42,1.24,3.06,4.57,2.97,7.18l-.33,10.69c-1.71.62-2.98-.26-4.13-.98-2.52,1.4-5.4,1.98-8.42.6h.01ZM91.82,448.16c-4.41-.59-8.06.67-7.77,3.49.09.85.71,1.62,1.74,2.14,1.65.86,3.63.34,4.9-.7,1.34-1.1,1.9-3.13,1.13-4.95h0Z"/>
    <path class="st5" d="M117.34,455.82c-1.84-1.36-2.09-3.6-1.79-5.62.6-4.12,6.31-5.47,11.85-4.96.08-3.14-2.75-4.93-5.34-4.01l-4.14,1.48c-.29-.75-.43-2.26.1-2.93,2.28-2.89,12.79-2.45,12.87,3.12l.18,13.87c-1.65.92-3.09-.1-4.37-.74-2.74,1.23-6.47,1.92-9.33-.21h-.01ZM127.13,448.04c-2.67-.15-4.45-.09-6.32.95-1.32.73-2.13,2.43-1.18,3.69,1.46,1.92,3.9,1.95,5.56.97,2.01-1.19,2.65-3.28,1.92-5.61h.01Z"/>
    <path class="st5" d="M507.68,453.99c2.29.1,3.73-.68,5.68-1.54l.14,3.59c-3.66,1.9-8.4,2.06-11.98-.48-4.28-3.03-4.39-11.66-.86-15.29,2.79-2.88,9.98-3.28,12.58.73,1.42,2.18,1.88,4.79,1.57,7.5l-12.27.04c-.63,2.86,1.97,5.31,5.11,5.45h.01ZM511.09,445.54c-.2-3.28-2.59-4.81-5-4.48-2.07.29-3.88,2.03-3.84,4.59l8.84-.11h0Z"/>
    <path class="st5" d="M396.6,453.91c-.88-1.93-.45-4.42.47-5.82,1.65-2.51,6.7-3.29,11.05-2.68.04-3.44-2.73-4.53-5.57-4.15l-4.04,1.37c-.25-.7-.38-2.47.23-3.08,1.66-1.67,4.02-1.22,6.17-1.41,3.54-.3,6.69,1.55,6.72,5.34l.09,13.32c-1.85.68-3.08.25-4.52-1.03-3.2,2.7-8.76,2.14-10.58-1.85h0ZM407.59,448.33c-2.34-.85-4.63-.05-6.2.67-1.25.58-1.56,2.09-1.35,2.99.25,1.06,1.03,1.74,2.2,2.12,1.82.6,3.58-.36,4.69-1.44.89-.86,1.92-3.75.66-4.34h0Z"/>
    <path class="st5" d="M388.48,438.94c.04-.93,3.22-.92,3.54-.04v17.85c-1.03.45-1.99.41-2.85.27-.58-.09-1.07-.9-1.29-1.74-2.3,1.88-4.39,2.62-6.99,1.91-2.14-.57-4.88-2.01-4.91-4.92l-.18-13.84c1.43-.34,2.56-.38,4.02.04l-.12,5.97c-.07,2.9-.67,6.06,1.13,8.63.81,1.16,3.12,1.11,4.42.45,1.04-.54,2.63-1.89,2.71-3.65l.53-10.94h-.02Z"/>
    <path class="st5" d="M153.85,447.72c.04,5.93-4.53,9.98-9.98,9.65-5.44-.34-9.23-5.08-8.72-10.79.41-4.51,3.53-8.4,8.18-8.46,2.91-.04,5.48.1,7.51,2.01,1.88,1.78,2.99,4.14,3.01,7.59h0ZM148.72,451.84c2.64-4.35.53-10.29-3.4-10.77-1.76-.22-3.52.32-4.68,1.86-1.84,2.42-2.09,5.77-.73,8.5.89,1.77,2.68,2.73,4.42,2.8,1.46.07,3.4-.76,4.39-2.37h0Z"/>
    <path class="st5" d="M189.85,456.87l.24-11.11c.04-2.08-.8-3.98-2.65-4.44-6.13-1.53-6.65,7.67-6.32,15.46-1.26.07-2.32-.02-3.73-.38l.45-17.57c.03-1.21,3.6-.84,4.09.65,2.49-1.37,4.82-1.66,7.57-1.13,2.99.57,4.52,3.75,4.46,6.69l-.23,11.79c-1.22.32-2.28.4-3.89.03h0Z"/>
    <path class="st5" d="M245.14,449.34c.04-2.57.2-5.45-1.45-7.13-1.36-1.4-3.44-1.14-4.91-.12-1.1.76-2.25,2.3-2.31,4.18l-.25,10.3c-1.4.45-2.62.18-3.91-.23l.31-7.26.33-10.41c.46-1.46,3.42.09,4.25.68,2.62-1.18,6.35-1.98,9.02-.25,1.91,1.23,2.58,3.73,2.57,5.93l-.04,11.72c-1.1.45-2.4.46-3.73.11l.11-7.51h.01Z"/>
    <path class="st3" d="M141.54,123.19l-6.74-4.33-6.81,4.35,2.22-7.54-6.28-5.32,8.14-.16,2.75-7.67,2.81,7.4c2.34.58,5.08.13,7.29.27.51.44-.2,1.47-.91,1.97l-4.75,3.29,2.29,7.75h-.01Z"/>
    <path class="st3" d="M165.98,33.47l-7.01,4.06,2.15-7.32-6.52-5.26,8.39-.36,2.66-7.21,3.06,7.26,7.85.34-6.23,4.96,1.97,7.62c-2.54-.77-3.85-2.56-6.31-4.07h0Z"/>
    <path class="st5" d="M108.49,457.95c2.01.9,2.75,1.34,3.07,2.54.42,1.55-.45,2.52-1.73,3.42-2.07,1.46-5.24,1.6-6.51-1,1.34-1.12,3.39.05,4.2-.35,1.31-.66.51-2.17-.04-2.17l-2.42-.02c-.18-1.11.33-2.02.67-3.29-3.73-1.73-5.91-4.79-6.19-8.58-.25-3.51,1.15-7.45,4.53-9.3,2.79-1.52,5.98-1.14,8.97-.67.33,1.31.36,2.47-.18,3.57-2.4-1.06-4.52-1.34-6.53,0-1.65,1.11-2.85,3.33-2.77,5.85.08,2.24,1.32,4.34,2.71,5.28,2.03,1.35,4.32.87,6.63-.1.43,1.23.3,2.4.2,3.63l-4.61,1.19h-.01Z"/>
    <path class="st3" d="M373.91,232.42l-6.94,4.79,2.34-7.78-6.24-5.14,7.89-.34,2.76-7.67,2.99,7.59,7.8.34c-1.87,2.44-4.18,3.17-6.18,4.93l2.34,8.05-6.78-4.78h.01Z"/>
    <path class="st3" d="M381.89,133.71l-6.74,4.5c-.11-2.7,1.37-4.89,1.96-7.67l-5.96-4.82,7.58-.54,2.9-7.61,2.84,7.63,8,.31-6.41,4.98,2.22,7.79-6.4-4.56h0Z"/>
    <path class="st3" d="M141.87,251.86l-6.63,4.47c.1-2.93,1.35-5.03,2.04-7.75l-6.29-4.75,7.76-.38c1.34-2.55,1.63-5.03,2.88-7.88l2.95,7.89c2.67.3,5.08-.45,7.8.37l-6.06,4.75,2.25,7.69-6.73-4.43h.01Z"/>
    <path class="st5" d="M205.48,441.91l-.65,14.88-3.58-.05.13-14.61c-.69-.85-2.73-.86-3.95-.46-.24-1.25-.31-2.21.07-3.55,1.07.33,3.31.44,3.71-.47.65-1.97.19-4.22,1.47-5.95,1.76-2.36,4.92-2.51,7.77-1.75.02,1.09-.05,2.12-.73,3.1-1.84-.49-3.28-.01-3.93,1.08s-1.04,3.92.3,4.02l3.75.3.02,3.43-4.37.03h-.01Z"/>
    <path class="st5" d="M263.79,453.84c.68-.04.75,2.06.24,2.69-.59.76-1.82.98-3.08.91-2.56-.13-5.31-1.22-5.36-4.02l-.24-11.77-3.59-.15.23-3.3c.96.05,2.59.3,3.37-.42s.3-2.67.55-3.44c.98-.91,2.51-.81,3.7-.73l.12,4.54,3.96.32c.82.07.98,3.07.2,3.14l-4.66.43-.03,9.29c0,1.06.63,1.86,1.14,2.2.73.48,1.89.38,3.45.3h0Z"/>
    <path class="st5" d="M68.44,446.05c-.73,2.78.34,5.17,1.98,6.69,1.85,1.73,4.43,1.6,6.97.53.55.35,1.07,2.63.21,3.17-3.1,1.96-7.08.92-9.83-1.08s-3.82-5.72-3.4-9.33c.64-5.36,5.11-8.73,10.57-7.79.96.16,2.68-.16,2.98.98.23.88.33,2.45-.59,2.95-2.1-1-3.78-1.31-5.77-.31-1.19.6-2.55,2.02-3.11,4.2h-.01Z"/>
    <path class="st3" d="M360.34,175.56c-1.87-.59-3.17-1.96-4.98-3.1l-4.9,3.23c-.34-3.12,2.86-5.62-.66-7.39-1.14-.57-2.4-1.1-2.67-2.85h6.14l2.18-5.86,2.18,5.7,5.99.14c-.47,3.09-5.28,2.71-4.22,5.97.4,1.2,1.18,2.03.96,4.14h-.01Z"/>
    <path class="st5" d="M281.68,456.38c-1.22.67-2.4.54-3.97.4l.49-13.54.26-13.05h3.6l-.38,26.19h-.01Z"/>
    <path class="st3" d="M172.03,209.51c-2.47-.81-3.6-2.34-5.59-3.51-1.89,1.2-2.98,2.77-5.19,3.54l1.63-5.91-4.82-4.23c2.38-.27,4.3.37,6.46-.55l2.07-5.45c1.4,1.69,1.42,3.78,2.19,5.73l6.61.35-5.03,3.86,1.69,6.15v.02Z"/>
    <path class="st5" d="M420.96,456.38c-1.08.75-2.52.52-3.9.07l.34-12.83.36-13.4c1.24-.22,2.44-.19,3.64-.03l-.44,26.19h0Z"/>
    <path class="st3" d="M240.6,16c-2.08-.67-3.25-3.13-5.06-3.09-1.99.04-3.09,2.56-5.17,3.03-.14-1.95.87-3.85,1.51-5.77l-4.84-4.17,6.42-.65c.71-1.9.76-3.77,2.06-5.36,1.42,1.71,1.31,3.58,2.01,5.43l6.43.52-4.76,4.24c.35,1.95,1.59,3.82,1.38,5.8h.01Z"/>
    <path class="st5" d="M171.9,456.58c-1.43.42-2.65.27-3.99.18l.42-24.87c1.25-.49,2.47-.45,4.04.05l-.47,24.65h0Z"/>
    <path class="st5" d="M271.8,456.37c-.73.76-2.42.59-3.68.21l.23-17.46c.01-1.06,3.55-1.23,3.68-.24.35,2.57.22,5.32.12,7.9l-.35,9.59Z"/>
    <path class="st5" d="M430.84,456.47c-1.42.34-2.56.32-3.68-.18l.25-17.8c1.38-.31,2.51-.37,3.58.11l-.14,17.88h-.01Z"/>
    <path class="st5" d="M128.93,435.6c-2.71,2.19-6.68-1.73-7.85-.73-.68.59-2.67,2.09-3.09.91-.52-1.49,1.06-3.04,1.89-3.65,2.56-1.85,5.88,2.24,7.7.74l1.2-.99c.42-.34,1.58.08,1.58.62,0,1.38-.78,2.56-1.45,3.1h.01Z"/>
    <path class="st5" d="M431.63,434.71c-1.65.3-2.89.26-4.31.14l-.15-3.86c1.56-.24,2.9-.27,4.48-.01v3.73h-.02Z"/>
    <rect class="st5" x="268.17" y="430.84" width="4.26" height="4.29" transform="translate(-165.95 697.98) rotate(-89.3)"/>
    <g>
      <g>
        <path class="st2" d="M451.42,394.78c-5.92-5.08-10.03-11.08-13.67-17.71-9.99-18.18-6.37-38.13,3.3-56.76l-24.51-1.99c-.91-.08-1.82.78-2.01,1.67-4.91,23.17-6.94,46.52-6.66,70.28.05,4.45-1.77,8.53-5.7,10.54-5.09,2.59-11.33,1.66-15.79-1.66-3.02-2.25-4.06-5.5-2.95-9.14l11.76-68.44c-12.36.57-24.07,2.92-36.15,6.52l-18.42,64.69c-2.69,4.22-7.12,7.12-12.22,6.52-5.41-.65-8.61-5.43-10.29-10.65l-4.2,6.9c-.56.91-2.46,1.84-3.69,1.96l-33.16,3.17c-5.79.55-11.16-2.47-14.22-7.21l-7.2,5.98-47.07,2.98c-4.34.27-9.27-3.26-8.47-7.41l4.45-23.31-5.29,5.4-14.03,14.12c-7.37,7.42-16.75,10.9-27.26,11.46-5.17.27-10.46-1.29-15.76-1.37-2.41,2.32-5.03,6.19-9.19,6.35-3.66.14-6.58-2.08-7.9-5.45l-5.32-13.6c-.54-2.66-2.34-4.08-4.59-5.28l-22.59-12.01-14.95,24.63c-1.3,2.13-3.03,3.58-5.42,3.52s-4.41-1.65-5.53-3.95l-2.68-5.44c-2.76-5.61-4.12-11.95-1.46-18l16.62-37.83,6.97-16.69-52.77.19c-1.75,0-2.67.54-2.81,2.32l-2.14,25.3,9.53.08c3.48.03,5.46,2.36,5.89,5.74.56,4.42-1.38,9.46-6.1,10.64l-10.06.46c-.66.03-2.14.26-2.18,1.15l-.53,15.69-.65,14.96c-2.69,8.74-16.16,11.3-20.45,6.58-2.15-2.36-4.4-6.18-3.8-9.79l11.35-69.16c-3.08.07-5.15-.44-6.83-1.95-4.39-3.95-1.56-13.25,4.44-15.97,4.48-2.03,9.24-2.6,14.24-3.07l66.46-6.06c4.2-.38,6.83,2.3,7.54,6.72,8.28-4.75,17.34-5.04,25.78-1.35,2.2.97,5.21,1.93,5.73,4.56l3.63,18.37,9.08,58.18,11-54.11c-3.8-.56-6.14-1.97-7.7-4.2-1.88-2.7-2.19-5.89-1.29-8.99,1.41-4.84,4.66-8.1,8-11.56,3.01-3.11,6.29-4.87,10.97-4.07,2.71.46,5.67.38,8.54.59l18.55,1.37c13.4.99,23.66,9.08,27.61,22.68l5.41-19.17c1.48-5.28,5.62-8.64,11.22-8.59l12.68.1,33.35-.04c1.09,0,2.81.79,2.81,1.86l-.07,9.63c-.35,4.21-2.71,7.65-6.36,9.78l-16.29.36-18.18.67-5.18,22.73,13.85-.55c2.15-.09,4.06,1.14,4.01,3.41-.04,2.01-1.25,3.58-2.2,5.2-2.82,4.81-7.55,7.62-13.29,7.47-2.31-.05-4.59-.19-6.8.71l-3.31,20.82,34.26-2.7,22.83-63.94c3.04-8.52,10.8-14.46,19.94-12.62,1.64.33,3.4,1.59,4.1,2.59,1.08,1.53,1.02,3.15.33,5.06l-24.3,66.48,23.44-5.76c3.84-.95,7.1.04,10.55,3.15l10.21-34.83,6.58-19.29c1.6-4.7,4.8-7.88,9.95-8.69,3.42-.55,6.69.13,9.27,3.42l2.26-3.81c2.33-3.92,6.13-5.91,10.77-6.13l25.66-1.2,12.23-.48,16.13-.6,25.63-.97c3.64-.14,5.39,3.43,5.17,7.53,10.44-8.48,22.73-11.19,35.62-9.27,8.92,1.33,16.16,5.59,20.34,13.88,2.56,5.07,5.57,10.76,5.58,16.72l.04,17.88c0,4.63-1.85,8.99-3.43,13.31-4.92,13.36-16.56,34.84-28.14,41.47-10.44,5.98-23.28,4.23-32.53-3.7l.05.02ZM119.06,354.35l.13-7.74c.03-1.96,1.24-2.86,2.86-3.62l7.48-3.55-12.57-6.7-2.2-12.51-6.89,11.08-12.5-2.71,4.45,10.69-5.95,12.05,14.47-5.67,9.87,17.88.84-9.18v-.02ZM473.84,354.07l14.5,5.35-4.81-14.02,8.75-5.77-12.35-2.84-5.19-11.94-3.86,8.68c-2.21,4.97-6.48,1.7-13.18,3.6l5.9,8.29-4.92,10.99,15.17-2.36h0ZM177.41,358.03c3.26,2.52,5.58,5.19,9.17,6.76l.4-11.39,12.11-7.19-13.99-2.68c-1.59-.31-2.29-1.67-2.8-3.01l-3.18-8.14-5.98,10.53c-1.09,1.92-7.32-.57-12.77.51,2.13,4.76,7.55,4.43,6.85,10.13l-1.32,10.61,11.53-6.11h-.01Z"/>
        <circle class="st2" cx="354.35" cy="290.01" r="11.38"/>
        <path class="st3" d="M119.06,354.35l-.84,9.18-9.87-17.88-14.47,5.67,5.95-12.05-4.45-10.69,12.5,2.71,6.89-11.08,2.2,12.51,12.57,6.7-7.48,3.55c-1.62.77-2.82,1.66-2.86,3.62l-.13,7.74v.02Z"/>
        <path class="st3" d="M473.84,354.07l-15.17,2.36,4.92-10.99-5.9-8.29c6.69-1.9,10.98,1.36,13.18-3.6l3.86-8.68,5.19,11.94,12.35,2.84-8.75,5.77,4.81,14.02-14.5-5.35h0Z"/>
        <path class="st3" d="M177.41,358.03l-11.53,6.11,1.32-10.61c.71-5.7-4.71-5.37-6.85-10.13,5.45-1.08,11.67,1.42,12.77-.51l5.98-10.53,3.18,8.14c.53,1.34,1.21,2.71,2.8,3.01l13.99,2.68-12.11,7.19-.4,11.39c-3.58-1.57-5.9-4.25-9.17-6.76h.01Z"/>
      </g>
      <g>
        <path class="st5" d="M259.25,259.31c-18.48,7.92-45.16,13.85-63.03,5.08-3.01-1.47-5.35-3.71-6.03-7.3-1.14-5.98.92-12.88,5.33-17.32,6.86-6.94,17.2-7.69,26.84-5.69,3.1-2.33,2.65-5.13,5.43-7.17,2.78-7.81-3.12-8.2-3.08-11.52.02-2.12.75-4.08,3.21-5.55-2.81-5.07-4.24-10.16-3.54-16.18-5.44.14-6.23-5.56-6-11.84l.63-17.28-2.69.35-.44-3.32c-8.65-.87-16.42-4.24-22.77-10.21-3.56,1.44-6.73.76-10.07.07-6.44-1.34-15.56,3.29-16.34-2.86-.27-2.14,1.58-3.76,4.29-3.87-1.46-1.99-3.87-.93-5.12-1.92-1.86-1.48-.92-4.64.99-5.3,1.81-.63,3.66-.09,5.06-.91-2.97-1.55-5.57-2.55-6.66-5.31-.74-1.87,1.22-3.84,3.12-3.79l4.75.13-4.17-3.04c-.88-.64-.92-2.97-.22-3.69,4.84-5.04,10.14,2.99,17.67,5.3-.82-4.51-.37-8.53,3.43-10.78,1.08-.64,2.78-.27,3.79.36.77.48,1.65,1.77,1.69,3.1l.21,6.76,6.52,7.35c4.45,3.14,9.76,4.59,14.87,5.89.38-1.25,1.06-1.98,1.91-1.87l10.17,1.26c-1.03-9.69,6.7-9.75,6.67-11.99-.01-.99-.59-1.49-1.8-1.58-3.47-.26-3.6,3.37-7.73,2.97-3.9-.38-6.19-5.86-6.78-11.03-.6.19-1.4.6-2.01.42-8.45-2.44-9.84-12.64-6.62-21.75-1.73-1.65-4.01-3.55-3.7-6.06.23-1.93,2.43-2.79,4.84-2.79l-1.45-14.12c-1.09-.78-3.03-1.81-1.97-4.1-2.55-.95-3.29-3.12-2.48-5.35,1.16-2.43,2.87-4.35,5.21-6.09l-.87-5.66c-.33-2.15,1.1-4.14,3.39-3.92,4.01.38,4.08-4.61,7.11-4.36,1.22.1,2.33.96,3.12,2.7,5.28-1.88,10.46-2.18,16.01-.88,10.02,2.34,20.33,2.45,30-1.13,2.12-.78,3.85-2.1,6.19-1.93,0,2.3.09,4.47.97,6.62,9.23.85,17.12,3.41,22.75,10.79l-2.56,1.89,2.08,10.94c.67,3.54,3.76,5.37,7.31,6.09-1.42,3.9-4.37,5.78-8.14,7.24,2.86,8.54.23,15.86.37,16.28.73,2.07,11.86,6.64,8.25,18.52-1.3,4.28-3.9,7.52-7.28,10.47-2.77,2.43-6.15,3.49-9.19,5.78,2.96.21,5.2-1.16,7.74-2.2l2.76,1.34c5.14-1.3,9.87-3.32,14.21-6.15.56-1.55,1.36-3.18,2.71-4.2,4.99-3.81,1.71-8.55,4.14-12.57.96-1.58,2.28-2.09,4.02-1.98,3.77.24,3.86,5.82,3.84,11.5l11.23-7.12c1.44-.91,4.22-1.3,5.51.15,2.15,2.42.56,5.74-2.15,7.34l5.44.37c1.99.13,2.64,3.12,1.54,4.78-1.18,1.78-3.09,2.45-4.78,3.4,1.44,1.14,2.67.46,3.53.69,1.59.42,2.34,1.63,2.41,2.84.21,3.51-4.17,3.04-7.57,4.68,1.99.84,3.62.9,4.74,2.1,1,1.06.4,2.89-.16,3.76-2.15,3.33-10.08-.1-15.5,1.49-3.58,1.06-6.9,2.03-10.86.29-4.97,6.86-12.11,10.57-20.46,11.51l-2.2,4.14-3.97.05c-.46,2.04-1.23,3.88-2.64,4.71-1.63.96-3.66.66-5.75.18-.79,8.34,7.57,15.65,6.81,16.55l-1.38,1.65-.24,9.65c-.04,1.9-1.89,3.62-1.91,5.74-.02,2.45,2.02,4.25,3.8,5.76l-6.34,9.33c-1.13,3.53-.15,7.62-.3,11.33,1.63-.14,3.75.09,3.92,1.51.14,1.11-.03,3.93,1.67,4.3,7.64-1.84,15.67-2.24,23.2,1.04,6.55,2.87,11.33,9.45,11.49,16.82.05,2.93-1.68,6.73-3.73,8.55-3.26,2.92-7.65,3.96-11.92,4.2l-14.58.81-9.79-.52-29.88-4.67v-.03ZM249.48,143.17c5.3,2.46,10.88,3.76,16.69,3.19,2.6-.25,5.98-.01,7.79-2.15.68-1.51.14-3.99,1.48-5.65,8.54-1.16,20.63-5.91,26.11-12.22,3.46-3.99,5.45-9.25,3.9-14.41-2-6.63-9.94-7.96-8.4-11.49,2.92-6.76.63-17.32-3.46-14.86l1.63,3.33c-3.85,1.12-8.39,1.2-11.94-.79-.93-.53-.76-2.74-.25-3.54.44-.7,1.4-1.2,2.88-2.04-6.37-5.59-15.52-12.69-23.77-11.58,2.15,3.19,3.8,5.68,2.77,8.98-8.4-2.12-19.94-5.81-26.5-.46,7.98,5.4,11.85,10.18,9.65,19.93-1.07,4.76-4.17,8.52-7.8,11.72-1.12-.71-1.65-1.54-3.35-1.42,1.32,3.03,2.11,6.07,2.42,8.89-.34.33-1.35.43-1.43.13l-.4-1.51c-.8-3.04-1.09-6.08-3.64-8.34-1.85,1.95-1.2,5.26-3.09,4.3-.98-.49.88-2.71.8-5.24-2.03.47-4.18.9-5.7,2.01-1.84,1.34-1.25,3.84-.74,5.62,3.24,11.07,14.24,6.61,14.86,7.35,1.2,1.46-2.79,1.24-2.9,2.79-.52,7.21,14.75,5.9,12.4,17.5l-.02-.02ZM232.79,106.23c-1.98-1.48-3.24-1.4-4.71-.91-.85.27-1.84.99-2.1,2.44l6.83-1.53h-.01ZM335.98,133.62l13.46-6.06c.95-.42,1.18-1.74.86-2.43-1.9-4.1-15.82,4.32-16.29,3.32-.81-1.74,6.26-4,11.88-9.59.78-.77.35-2.53-.41-2.86-.54-.24-1.68-.65-2.49-.13l-10.91,6.94c-4.23,2.69,2.69,5.82-3.3,11.69,3,1.49,4.9,3.92,4.21,4.93-.13.2-.57.18-1.22.12-2.63-5.9-8.74-2.19-8.02-4.03.2-.52.34-.71,1.4-.84,2.03-.25,5.1-3.34,4.56-5.68-.9-3.86-1.65-7.02-1.21-11.22.19-1.79-.4-5.24-2.6-5.57s-3.46,3.06-3.1,4.93c1.55,8.18-7.37,8.56-5.91,16.24-.55.46-1.54-.15-1.29-.76.09-.2-.31-1.03-.62-1.15-4.68,2.4-9.33,4.77-14.49,5.59,2.58,6.66,2.76,12.74,2.2,19.55,7.9-.98,14.8-4.51,19-10.72-1.37-.93-1.88-1.79-.97-3.09,4.18,4.19,8.77,3.32,13.5,1.93,5.4-1.58,14.56,2.2,14.42-1.81-.11-3.07-10.21-1.46-13.68-4.43,6.37-.55,16.19-1.65,15.98-4.21-.19-2.32-9.41-1.46-15.13.96-.42.18-.8-.67-.56-.91.15-.16.25-.52.74-.73h0ZM166.45,140.61c.9,3.01,15.51,1.37,16.04,3,.1.31-.07.77-.29.76l-1.36-.02-10.99,2.22c-1.22.24-1.73,1.82-1.2,2.65,1.69,2.68,9.5-.67,15.04.65,4.68,1.12,9.01,1.19,12.66-3.26.88,1.95-.12,2.52-1.77,3.78,6.09,5.31,13.19,8.84,21.66,9.59l1.01-19.51c-5.73-.92-10.61-2.96-15.41-5.48l-.57,1.88c-.1.33-.57.75-1.47.36,1.63-6.65-7.64-7.8-6.07-17.11.22-1.27-.92-3.85-2.34-3.32-3.81,1.43-4.51,5.77-3.06,9.12,1.89,4.36-2.53,6.17-.9,9.17,1.16,2.14,3.84,2.03,3.93,3.23.08.82-4.77,1.38-5.4,6.65-.08.67-.91.65-1.21.34-1.01-1.06.73-4.82,3.33-7.26-1.65-1.35-2.59-2.69-2.62-4.34-.02-1.76.74-3.14,2.08-5.19-4.77-1.54-8.7-4.11-12.77-6.87-1.71-1.15-3.91-1.07-5.17.99,4.21,3.89,8.84,6.74,13.73,9.41.38.21.38.86.32,1.08-.48,1.51-6.2-4.06-16.13-3.85-.79.02-.78,2.01-.29,2.43l1.48,1.26c6.74,3.66,13.64,4.2,12.72,5.89-.13.25-16.02-1.75-14.98,1.75h-.01ZM241.06,133.27c-2.26-1.32-3.41-2.56-5.02-4.13-4.21,1.01-6.41,5.59-5.39,9.57,5.51-.25,8.35-.59,10.41-5.44ZM230.47,171.49c9.47-2.85,13.92-11.44,16.91-19.93.87-2.46.67-4.66,1.01-7.14.66-4.73-1.03-8.8-5.84-10.36l-2.93,4.51c2.07,4.56,2.81,9.61.93,14.27-1.97,4.88-6.14,7.7-10.91,9.78.76,3.2.73,5.84.82,8.88h0ZM300.94,158.79l.62-6.51c.53-5.57-1.16-10.99-3-16.27-.99-.02-1.6.31-2.03.86,2.92,7.48,3.1,16.23,1.88,23.79,1,.48,1.76.19,1.9-.19l.64-1.69h0ZM296.75,159.58c2.53-8.17.48-15.34-1.53-22.64-4.09,2.04-7.13,1.53-11.4,1.43,7.3,6.09,11.06,12.98,12.92,21.21ZM221.59,139.3c-.04-.6-2.06-.9-2.68-.52l-1.26,23.54c-.03.64,1.46.75,1.8.23,2.19-3.28,2.66-16.46,2.13-23.27h.01ZM238.12,139.11c-2.38.56-4.33,1.4-6.59,1.15l-8.33-.87c.49,7.88-.07,14.96-1.63,22.22,4.29.79,7.58-.38,11.03-2.31,7.78-4.35,9.41-12.16,5.53-20.2h-.01ZM287.17,162.36c.66,2.59,1.74,3.99,4.59,3.81,1.89-.12,3.31-2.14,3.19-4.61-.45-9.28-5.87-17.08-13.18-22.68l-5.12,1.23c-1.04.76-1.11,3.99-.55,5.24,4.8,4.81,9.34,10.23,11.07,17ZM262.62,150.15c4.42.26,9.34.14,12.57-3.71-8.85,2.24-16.66,2.19-24.72-1.13-.67-.27-1.16,1.56-.74,1.93.47.42,1.18.41,1.89.56l11,2.35h-.01ZM227.34,186.69l12.41,6.01c5.5,2.67,11.91,4.66,18.31,4.26,13-.8,24.81-6.21,35.26-13.62-4.82-5.31-6.41-10.72-7.03-17.02-.71-7.13-5.04-12.98-9.73-18.12-5.39,3.66-11.18,4.32-17.32,3.03l-9.52-2c-2.07,8.99-6.58,16.62-14.02,21.79l-5.53,2.51c-.56,4.57-1.77,8.35-2.82,13.17h0ZM224.83,190.94l2.6-11.45c1.25-5.53,2.14-10.78.86-16.28-2.77-.05-5.21-.04-7.66.9-.03,4.28-.04,8.32-.64,12.6-1.98,14.14,4.15,17.31,4.85,14.24h-.01ZM251.16,209.84c.93-.68,9.01.68,16.49-6.89.38-.4,1.09-.54,1.55-.35.32.12.47.91.12,1.19l-.78.62c-2.28,1.8-4.13,3.62-7.08,4.69l1.96,5.3c.66,1.79,2.08,1.99,3.85,2.15,6.42.57,13.39,1.53,19.26-1.66,3.06-1.66,4.73-5.33,6.8-7.92-7.53-5.58,1.36-11.64-1.49-20.5-13.01,8.48-30.93,15.42-45.94,10.36-6.47-2.19-12.06-5.29-18.73-8.46-1.79,5.58-1.74,11.89.76,17.29.89,1.92,2.32,4.11.59,6.03-.79.88-1.91,1.67-2.02,2.86-.35,3.88,8.75,8.87,15.87,8.65,2.79-.09,5.28-1,7.64-2.14l11.79-5.72c-.33-2.06-.98-3.81-1.9-5.48-6.15,2.03-10.59,1.36-8.72,0h-.01ZM287.04,216.62c-5.17,1.92-8.96,2.26-13.49,2.06l-8.76-1.01c-1.13-.13-2.11-1.1-3.19-.36-.55.37-1.78.88-1.77,2.01l.13,14.95c9.56-.19,18.68-2.26,27.27-6.56.14-3.87.46-7.37-.19-11.09h-.01ZM229.99,227.99c9.32,3.84,18.38,6.69,28.28,6.55.46-5.28.51-10.35.03-15.58l-7.57,3.39c-6.7,3.71-14.24,3.06-20.78-1.1-.23,2.55-.31,4.4.03,6.75h.01ZM257.78,240.23c.62-1.38.47-3.02.24-4.3-10.09.55-20.62-3.15-29.84-6.97-1.84-.02-1.03,2.98-1.78,3.54-.62.46-2.9,2.18-1.67,2.88,9.9,5.62,21.83,7.4,33.05,4.85h0ZM274.46,239.96c6.92-.03,12.94-2.23,18.17-5.96-.93-1.19-1.7-1.37-2.42-1.91.6-1.11.95-1.76,1.11-2.97-1.95-.78-3.56-.04-5.31.87-8,4.15-16.65,5.03-25.57,6.12-1.04.13-1.19,3.74-.18,3.91l14.21-.05h-.01ZM327.83,251.58c-1.02-9.9-8.34-17.13-18.08-17.82-5.75-.96-11.4-.37-16.72,2-5.62,5.32-9.29,12.47-8.76,20.5,15.42,1.42,30.17,2.76,43.56-4.68h0ZM216.29,261.37l16.43-2.14c.78-8.68-2.78-16.33-8.63-22.1-1.54-1.52-3.09-1.57-5.23-1.91-7.76-1.2-15.91-.03-21.78,5.51-4.11,3.89-5.77,9.74-5.53,15.38,7.51,4.57,15.79,5.7,24.74,5.28ZM326.63,254.16c-5.75,2.21-11.05,4.22-17.13,4.55-11.64.63-23.17-.21-34.7-2l-14.76-2.29.04,3.31,29.62,4.69,12.58.46c7.94.3,23.35-1.11,24.36-8.74h-.01ZM196.18,262.45c6.14,3.3,12.47,4.41,19.23,4.47,9.22.09,18.28-.36,26.89-3.42l15.35-5.45c1.15-.41,1.37-2.7.41-3.22l-20.59,4.93c-14.02,3.36-31.53,5.54-44.58-.89.05,1.9,1.7,2.76,3.26,3.59v-.02Z"/>
        <path class="st6" d="M227.34,186.69c1.06-4.81,2.26-8.59,2.82-13.17l5.53-2.51c7.44-5.18,11.96-12.8,14.02-21.79l9.52,2c6.14,1.3,11.94.63,17.32-3.03,4.68,5.14,9.01,11,9.73,18.12.63,6.3,2.21,11.7,7.03,17.02-10.45,7.42-22.26,12.83-35.26,13.62-6.4.4-12.81-1.59-18.31-4.26l-12.41-6.01h0Z"/>
        <path class="st2" d="M251.16,209.84c-1.89,1.37,2.55,2.04,8.72,0,.92,1.66,1.57,3.43,1.9,5.48l-11.79,5.72c-2.36,1.14-4.85,2.06-7.64,2.14-7.12.22-16.22-4.77-15.87-8.65.11-1.19,1.24-1.99,2.02-2.86,1.73-1.92.3-4.11-.59-6.03-2.49-5.4-2.55-11.7-.76-17.29,6.67,3.18,12.25,6.28,18.73,8.46,15.01,5.07,32.93-1.87,45.94-10.36,2.86,8.85-6.03,14.91,1.49,20.5-2.08,2.58-3.75,6.26-6.8,7.92-5.87,3.2-12.85,2.23-19.26,1.66-1.77-.15-3.19-.35-3.85-2.15l-1.96-5.3c2.93-1.08,4.8-2.9,7.08-4.69l.78-.62c.35-.27.2-1.07-.12-1.19-.46-.18-1.16-.03-1.55.35-7.46,7.57-15.55,6.22-16.49,6.89h.01Z"/>
        <path class="st6" d="M216.29,261.37c-8.95.43-17.23-.7-24.74-5.28-.24-5.63,1.42-11.49,5.53-15.38,5.87-5.55,14.01-6.72,21.78-5.51,2.15.33,3.69.38,5.23,1.91,5.85,5.77,9.42,13.42,8.63,22.1l-16.43,2.14h0Z"/>
        <path class="st6" d="M327.83,251.58c-13.39,7.44-28.14,6.1-43.56,4.68-.53-8.02,3.14-15.18,8.76-20.5,5.32-2.37,10.97-2.96,16.72-2,9.74.68,17.06,7.9,18.08,17.82Z"/>
        <path class="st6" d="M238.12,139.11c3.88,8.05,2.25,15.86-5.53,20.2-3.45,1.93-6.75,3.1-11.03,2.31,1.57-7.26,2.13-14.34,1.63-22.22l8.33.87c2.26.23,4.21-.59,6.59-1.15h.01Z"/>
        <path class="st2" d="M230.47,171.49c-.11-3.04-.07-5.68-.82-8.88,4.77-2.08,8.95-4.9,10.91-9.78,1.88-4.67,1.13-9.7-.93-14.27l2.93-4.51c4.8,1.57,6.5,5.64,5.84,10.36-.34,2.48-.14,4.68-1.01,7.14-2.99,8.48-7.44,17.08-16.91,19.93h0Z"/>
        <path class="st6" d="M196.18,262.45c-1.56-.84-3.21-1.69-3.26-3.59,13.03,6.43,30.54,4.25,44.58.89l20.59-4.93c.97.53.75,2.81-.41,3.22l-15.35,5.45c-8.62,3.07-17.68,3.51-26.89,3.42-6.77-.07-13.09-1.18-19.23-4.47v.02Z"/>
        <path class="st2" d="M287.17,162.36c-1.73-6.77-6.26-12.19-11.07-17-.55-1.26-.48-4.5.55-5.24l5.12-1.23c7.31,5.61,12.72,13.41,13.18,22.68.12,2.46-1.3,4.48-3.19,4.61-2.86.18-3.93-1.22-4.59-3.81Z"/>
        <path class="st6" d="M326.63,254.16c-1.01,7.63-16.42,9.03-24.36,8.74l-12.58-.46-29.62-4.69-.04-3.31,14.76,2.29c11.53,1.78,23.07,2.63,34.7,2,6.09-.33,11.39-2.35,17.13-4.55h.01Z"/>
        <path class="st6" d="M257.78,240.23c-11.22,2.55-23.15.77-33.05-4.85-1.23-.69,1.04-2.41,1.67-2.88.75-.56-.05-3.55,1.78-3.54,9.23,3.81,19.75,7.52,29.84,6.97.23,1.27.36,2.91-.24,4.3Z"/>
        <path class="st2" d="M224.83,190.94c-.69,3.08-6.83-.09-4.85-14.24.59-4.28.62-8.32.64-12.6,2.45-.93,4.89-.96,7.66-.9,1.29,5.5.41,10.75-.86,16.28l-2.6,11.45h.01Z"/>
        <path class="st6" d="M274.46,239.96l-14.21.05c-1-.18-.87-3.78.18-3.91,8.94-1.09,17.58-1.97,25.57-6.12,1.75-.9,3.36-1.65,5.31-.87-.16,1.21-.51,1.86-1.11,2.97.71.54,1.48.73,2.42,1.91-5.22,3.73-11.24,5.92-18.17,5.96h.01Z"/>
        <path class="st6" d="M296.75,159.58c-1.87-8.23-5.63-15.12-12.92-21.21,4.26.1,7.31.62,11.4-1.43,2.01,7.3,4.06,14.47,1.53,22.64Z"/>
        <path class="st6" d="M221.59,139.3c.53,6.8.05,19.99-2.13,23.27-.34.52-1.84.41-1.8-.23l1.26-23.54c.63-.38,2.63-.09,2.68.52h-.01Z"/>
        <path class="st2" d="M241.06,133.27c-2.06,4.85-4.9,5.19-10.41,5.44-1.02-3.98,1.18-8.56,5.39-9.57,1.63,1.57,2.76,2.81,5.02,4.13Z"/>
        <path class="st6" d="M300.94,158.79l-.64,1.69c-.14.38-.89.67-1.9.19,1.22-7.56,1.04-16.31-1.88-23.79.42-.56,1.03-.88,2.03-.86,1.84,5.28,3.53,10.69,3,16.27l-.62,6.51h0Z"/>
        <path class="st6" d="M262.62,150.15l-11-2.35c-.71-.15-1.42-.14-1.89-.56-.43-.37.08-2.21.74-1.93,8.06,3.32,15.88,3.37,24.72,1.13-3.22,3.86-8.14,3.98-12.57,3.71h.01Z"/>
        <g>
          <path class="st4" d="M249.48,143.17c2.36-11.6-12.91-10.29-12.4-17.5.11-1.55,4.1-1.33,2.9-2.79-.62-.75-11.62,3.71-14.86-7.35-.52-1.77-1.1-4.26.74-5.62,1.53-1.12,3.67-1.54,5.7-2.01.08,2.54-1.78,4.75-.8,5.24,1.89.96,1.24-2.35,3.09-4.3,2.55,2.26,2.84,5.3,3.64,8.34l.4,1.51c.08.3,1.09.2,1.43-.13-.31-2.81-1.09-5.85-2.42-8.89,1.7-.12,2.22.69,3.35,1.42,3.65-3.19,6.74-6.96,7.8-11.72,2.2-9.75-1.67-14.54-9.65-19.93,6.55-5.35,18.09-1.66,26.5.46,1.04-3.29-.62-5.79-2.77-8.98,8.24-1.11,17.4,5.99,23.77,11.58-1.47.85-2.44,1.34-2.88,2.04-.49.8-.68,3.01.25,3.54,3.56,1.99,8.09,1.9,11.94.79l-1.63-3.33c4.09-2.46,6.39,8.1,3.46,14.86-1.53,3.54,6.41,4.87,8.4,11.49,1.55,5.15-.43,10.42-3.9,14.41-5.48,6.32-17.57,11.07-26.11,12.22-1.34,1.66-.8,4.14-1.48,5.65-1.81,2.14-5.2,1.9-7.79,2.15-5.81.57-11.4-.73-16.69-3.19l.02.02ZM269.87,88.98c1.29-.93,1.25-3.82-.03-4.74-2.37-1.68-5.26-1.51-8.06-.36-1.8.73-3.79,2.99-4.26,5.44l6.24-.21c1.9-.07,4.09,1.34,6.11-.13h0ZM275.1,117.55c2.85,2.06,7.09,1.62,9.2-1.04,1.79-2.25,1.04-5.82-1.27-7.95,7.09-3.4,12.66,2.82,12.43-.53l-3.17-1.79c1.85-3.77,1.03-8.42-.99-11.75-1.15-1.89-3.24-2.66-5.12-2.32-4.65.84-5.06,9.41-4.53,15.84-3.01-.44-5.74.31-7.5,2.42-.56.68.54,1.75,1.14,1.15,1.96-1.98,5.02-2.89,7.29-.96,1.18,1.01,1.51,2.97.65,4.34-2.54,4.04-7.18.48-8.12,2.57h-.01ZM273.46,108.8c.22-1.55-.98-2.19-2.65-2.26.46-4.34-.22-8.33-2.79-11.92-1.55-2.17-5.19-3.13-7.08-.89-5.12,6.07.75,13.69-3.14,16.16,1.41,1.32,2.23.18,3.22-.48,3.79-2.49,8.17-2.08,12.44-.6h0ZM284.8,123.65c1.19-1.68,3.68-1.73,5.01-2.69.37-.26.4-1.22.1-1.31-1.45-.46-10.44,4.71-18.23,2.49l-9.31-2.66c.6-.3,1.38-1.06,1.07-1.78-4.08-.52-7.62,2.08-6.89,4.84.1.36.98.73,1.23.25.27-.51.56-2.08,1.49-2.2,2.26,1.76,3.91,4.99,4.14,7.89.42,5.28,3.79,8.46,9.06,8.57,10.69.23,9.68-9.63,12.35-13.41h-.02Z"/>
          <path class="st4" d="M166.45,140.61c-1.04-3.49,14.84-1.49,14.98-1.75.92-1.69-5.99-2.24-12.72-5.89l-1.48-1.26c-.49-.42-.51-2.42.29-2.43,9.92-.21,15.64,5.35,16.13,3.85.08-.22.08-.87-.32-1.08-4.9-2.67-9.52-5.51-13.73-9.41,1.24-2.06,3.45-2.14,5.17-.99,4.08,2.76,8,5.33,12.77,6.87-1.34,2.04-2.1,3.44-2.08,5.19.02,1.65.97,2.99,2.62,4.34-2.6,2.45-4.34,6.21-3.33,7.26.3.31,1.13.33,1.21-.34.63-5.26,5.47-5.82,5.4-6.65-.11-1.21-2.78-1.1-3.93-3.23-1.64-3,2.79-4.8.9-9.17-1.45-3.35-.76-7.7,3.06-9.12,1.42-.53,2.56,2.04,2.34,3.32-1.57,9.32,7.69,10.47,6.07,17.11.9.38,1.37-.04,1.47-.36l.57-1.88c4.81,2.53,9.69,4.56,15.41,5.48l-1.01,19.51c-8.47-.77-15.57-4.3-21.66-9.59,1.64-1.26,2.65-1.85,1.77-3.78-3.65,4.45-7.98,4.39-12.66,3.26-5.54-1.32-13.34,2.03-15.04-.65-.52-.82-.01-2.41,1.2-2.65l10.99-2.22,1.36.02c.22,0,.38-.45.29-.76-.53-1.62-15.13.02-16.04-3h.01Z"/>
          <path class="st4" d="M335.98,133.62c-.48.22-.58.57-.74.73-.24.24.14,1.09.56.91,5.74-2.41,14.95-3.26,15.13-.96.21,2.56-9.59,3.66-15.98,4.21,3.47,2.98,13.57,1.36,13.68,4.43.14,4.01-9.01.23-14.42,1.81-4.73,1.38-9.32,2.25-13.5-1.93-.91,1.29-.41,2.15.97,3.09-4.2,6.2-11.09,9.73-19,10.72.56-6.81.38-12.89-2.2-19.55,5.15-.82,9.81-3.2,14.49-5.59.31.12.7.96.62,1.15-.25.6.74,1.22,1.29.76-1.46-7.67,7.46-8.06,5.91-16.24-.35-1.88.86-5.28,3.1-4.93s2.79,3.78,2.6,5.57c-.43,4.2.31,7.36,1.21,11.22.54,2.33-2.53,5.43-4.56,5.68-1.06.13-1.19.33-1.4.84-.71,1.85,5.41-1.87,8.02,4.03.65.05,1.08.08,1.22-.12.69-1.01-1.21-3.44-4.21-4.93,5.99-5.87-.93-9.01,3.3-11.69l10.91-6.94c.81-.52,1.96-.11,2.49.13.76.33,1.19,2.08.41,2.86-5.62,5.61-12.71,7.87-11.88,9.59.47,1,14.39-7.41,16.29-3.32.32.68.08,2-.86,2.43l-13.46,6.06h0Z"/>
          <path class="st4" d="M287.04,216.62c.66,3.71.33,7.22.19,11.09-8.58,4.3-17.71,6.37-27.27,6.56l-.13-14.95c0-1.13,1.22-1.64,1.77-2.01,1.07-.74,2.04.23,3.19.36l8.76,1.01c4.53.21,8.32-.13,13.49-2.06h.01Z"/>
          <path class="st4" d="M229.99,227.99c-.34-2.35-.26-4.2-.03-6.75,6.54,4.15,14.08,4.82,20.78,1.1l7.57-3.39c.47,5.22.43,10.31-.03,15.58-9.91.13-18.96-2.73-28.28-6.55h-.01Z"/>
          <path class="st4" d="M232.79,106.23l-6.83,1.53c.26-1.45,1.25-2.18,2.1-2.44,1.48-.47,2.74-.57,4.71.91h.01Z"/>
          <path class="st5" d="M289.91,119.65c-1.45-.46-10.44,4.71-18.23,2.49l-8.75-2.49c-.42.04-.85.07-1.32.09-.49.03-.92.3-1.49.36-.07,0-.51.19-.19.07.1-.04-.03.1-.04.2-.03.24-.04.48-.04.74.73.68,1.38,1.52,1.92,2.42.91,1.54,1.51,3.31,1.64,4.97.42,5.28,3.79,8.46,9.06,8.57,10.69.23,9.68-9.63,12.35-13.41,1.19-1.68,3.68-1.73,5.01-2.69.37-.26.4-1.22.1-1.31h-.01Z"/>
          <path class="st5" d="M283.01,108.56c2.03-.98,3.95-1.15,5.63-1,2.17-.26,4.62.29,6.56,1.37.19-.14.27-.42.24-.89l-3.17-1.79c1.85-3.77,1.03-8.42-.99-11.75-1.15-1.89-3.24-2.66-5.12-2.32-4.65.84-5.06,9.41-4.53,15.84-3.01-.44-5.74.31-7.5,2.42-.56.68.54,1.75,1.14,1.15,1.96-1.98,5.02-2.89,7.29-.96,1.18,1.01,1.51,2.97.65,4.34-2.54,4.04-7.18.48-8.12,2.57,2.85,2.06,7.09,1.62,9.2-1.04,1.79-2.25,1.04-5.82-1.27-7.95h-.01ZM284.15,97.28c-.19-2.11,1.2-3.56,2.95-3.63,1.62-.05,2.86,1.01,3.55,2.53.74,1.6.47,2.62.36,4.19l-.43,6.1-1.53-5.62c-.87.82-1.3,1.76-2.62,1.98l-.07-3.91c-1.36.21-1.81,1.69-3.67,2.45l1.45-4.09h0Z"/>
          <path class="st5" d="M273.49,108.53c.05-1.36-1.1-1.93-2.67-2,.46-4.34-.22-8.33-2.79-11.92-1.55-2.17-5.19-3.13-7.08-.89-5.12,6.07.75,13.69-3.14,16.16.32.3.6.46.87.55,3.87-3.07,10.24-4.15,14.82-1.89Z"/>
          <path class="st5" d="M269.87,88.98c-2.03,1.47-4.22.07-6.11.13l-6.24.21c.47-2.45,2.47-4.71,4.26-5.44,2.8-1.14,5.68-1.32,8.06.36,1.27.9,1.32,3.8.03,4.74h0Z"/>
          <path class="st2" d="M291.02,100.37l-.43,6.1-1.53-5.62c-.37-1.37-1.31-2.14-2.69-1.92s-1.81,1.69-3.67,2.45l1.45-4.09c1.34-.81,4.11-1.42,5.37.02l1.48,3.07h.01Z"/>
          <path class="st4" d="M291.02,100.37l-1.48-3.07c-1.26-1.45-4.03-.85-5.37-.02-.19-2.11,1.2-3.56,2.95-3.63,1.62-.05,2.86,1.01,3.55,2.53.74,1.6.47,2.62.36,4.19h0Z"/>
          <path class="st4" d="M289.06,100.85c-.87.82-1.3,1.76-2.62,1.98l-.07-3.91c1.38-.21,2.32.56,2.69,1.92h-.01Z"/>
          <path class="st4" d="M267.78,99.76c-.53-1.38-1.56-2.26-2.53-2.65-1.67-.67-2.92-.81-4.01.7-1.15-1.2.4-3.14,1.59-3.6,2.04-.8,3.63.46,4.64,2.26.59,1.07,1.51,2.29.31,3.3h0Z"/>
          <path class="st4" d="M264.86,99.13c.55.22,1.15.89,1.25,1.21-.24.6-.67,2.08-1.43,2.37-1.24.49-1.08-1.19-1.08-1.79,0-1.13.41-1.59,1.24-1.79h.01Z"/>
        </g>
      </g>
    </g>
    <g>
      <path class="st6" d="M261.84,107.7s-5.3-12.27,1.96-14.03c0,0,6.25-.93,5.5,12.75,0,0-5.5-1.15-7.45,1.29Z"/>
      <path class="st5" d="M261.36,108.03s-4.34-10.22,1.69-11.4,5.36,10.08,5.36,10.08c0,0-7.43,2.35-7.06,1.32Z"/>
      <path class="st1" d="M261.74,107.21s-3.9-9.7,1.84-9.92c0,0,4.4-.18,4.45,8.96,0,0-2.4-.13-6.29.97Z"/>
      <path class="st5" d="M260.68,103.54s-.07-4.67,2.59-4.86,3.87,4.42,3.81,7.57l-1.23.96-4.62.47-.55-4.14h-.01Z"/>
      <path class="st0" d="M264.16,99.42l-.2,3.32,2.04-1.04s-.46-2.13-1.85-2.28h0Z"/>
    </g>
    <g>
      <path class="st6" d="M283.52,106.98s-3.66-12.85,3.77-13.66c0,0,6.1.33,3.79,13.35,0,0-5.3-1.86-7.55.31h-.01Z"/>
      <path class="st5" d="M283.01,107.25s-2.98-10.69,3.15-11.08c6.13-.38,4.01,10.68,4.01,10.68,0,0-7.67,1.36-7.17.4Z"/>
      <path class="st1" d="M283.49,106.5s-2.6-10.13,3.11-9.61c0,0,4.39.4,3.25,9.46,0,0-2.35-.45-6.36.14h0Z"/>
      <path class="st5" d="M282.93,102.72s.55-4.64,3.2-4.47,3.26,4.88,2.79,8.01l-1.35.78-4.64-.13v-4.19Z"/>
      <path class="st0" d="M286.89,99.08l-.63,3.26,2.15-.77s-.18-2.18-1.54-2.49h.01Z"/>
    </g>
    <path class="st7" d="M278.05,134.51s-6.32,2.49-10.05-.68c-3.73-3.19-2.49-4.76-2.49-4.76,0,0,5.5.24,6.77,3.63,0,0,.2.84,1.03.68s.93-1.18-.3-2.49c0,0,5.68.14,5.04,3.63h-.01Z"/>
    <path class="st5" d="M258.53,119.9c-.14.04,1.91,1.82,1.91,1.82l1.62-.97.86-1.1-1.4-.8h-1.73l-1.26,1.04Z"/>
  </g>
  <path class="st5" d="M261.95,118.83s-3.06.46-3.41,2.33c-.36,1.86-.98,1.91-1.34,1.7s-.22-1.96,1-3.45,4.58-2.48,5.67-2.23.8,1.04-1.91,1.66h-.01Z"/>
</svg>